<svg version="1" xmlns="http://www.w3.org/2000/svg" width="346.667" height="346.667" viewBox="0 0 260.000000 260.000000"><path d="M131 5.9c0 .5.7 1.4 1.5 2.1 5.8 4.8 15.8 31.4 18 48 1 7.5 2.4 9.8 2.5 4 0-6.4-3.4-21.6-7.7-34.5-3-9.1-4.4-11.7-8.1-15.7-4.3-4.6-6.2-5.8-6.2-3.9zM122.8 14.7c-.2 1-.1 3.4.3 5.3.6 3.1.6 3 .8-1.8.1-5.2-.3-6.7-1.1-3.5zM132 20.4c0 4.8-.3 5.7-1.2 4.8-1-1-1.5.3-2.5 6.3-1.2 8.3-3.3 13.1-11.6 27-2.9 5-5.7 10.3-6.1 11.9-.4 1.6-1.5 3-2.6 3.3-1.1.3-1.7.9-1.4 1.4.3.5 0 .9-.5.9-.6 0-1.1.7-1.1 1.5s-.7 1.5-1.6 1.5c-1.4 0-1.4-.3-.3-1.8 4.1-5.4-2.3 2-10.6 12.3-5.4 6.6-13.1 16.2-17.3 21.3-4.1 5.1-7.2 9.5-6.9 9.8.3.3 1.4-.4 2.5-1.6 1.8-2 2-2 1.7-.4-.2 1.1-.4 2.1-.4 2.4-.1.3-1.2 1.8-2.6 3.4l-2.5 2.9-.8-2.4-.9-2.3-1.8 2.8-1.9 2.8 4 3.7c26.2 23.9 33.8 30.6 35 30.6.8 0 1.9.6 2.3 1.4.6.9 1.8 1.1 3.5.7 2.8-.7 14.5-8.6 14.6-9.8 0-.4-3.3-3.4-7.4-6.8-7.2-6-9-8.7-7.9-11.7.3-.8 6.1-8.7 12.8-17.4 6.8-8.8 13-16.9 13.9-18.2.9-1.2 1.4-1.6 1-.8-.5 1-.3 1.2.5.6.7-.4 3.1-4.6 5.3-9.4 10.1-21.8 10.3-25.7 2.9-50.4-2.8-9.2-6.2-18.9-7.6-21.5l-2.4-4.7-.1 5.9zm-28.7 62.9c-1.7 2.3-4.3 3.2-4.3 1.6 0-.7 4.6-3.7 5.8-3.9.2 0-.5 1-1.5 2.3zm-5.8 6.6c0 1.6-.5 2.7-1.1 2.4-.5-.2-1.6 1.2-2.4 3.2-.7 1.9-1.7 3.5-2 3.5-.4 0-2.4 2.7-4.6 6-2.1 3.3-4.2 6-4.6 6-.5 0-.8.6-.8 1.2 0 .7-.9 2.4-2 3.8-1.6 2.1-2 2.2-2 .7 0-1 2.6-5.3 5.9-9.5 3.2-4.2 6.2-8.8 6.6-10.2.6-2 6.1-10 6.8-10 .1 0 .2 1.3.2 2.9zm3.3-1c-.7 1.1-1.6 1.7-2.2 1.4-.5-.3-.1-1.2.9-2 2.5-1.8 2.7-1.7 1.3.6zm-24.5 31.2c-.6.6-.9 1.8-.6 2.5.3.8-.2 1.7-1.1 2-.9.3-1.6 1.2-1.6 1.9 0 1.6-2.8 4-3.7 3.1-.9-.9 2.4-6.2 3.7-5.9.5.2 1-.5 1-1.5 0-1.9 2-4.5 2.9-3.7.2.3 0 1-.6 1.6zm4.7 4.3c0 .3-.4.8-1 1.1-.5.3-1 .1-1-.4 0-.6.5-1.1 1-1.1.6 0 1 .2 1 .4zm-4.7 4.6c.3 1.2 1.4 2 2.7 2 1.1 0 1.9.4 1.5.9-.3.6-.1 2.8.4 5 1 4.5 0 5.3-2.4 1.8-.8-1.2-1.8-2.1-2.1-1.9-.3.2-1.8-.8-3.4-2.2l-3-2.5 2.3-2.5c2.7-3.1 3.3-3.2 4-.6zm3.6-.3c-.6.7-1.5 1.3-2 1.3s-.6-.6-.3-1.3c.3-.8 1.1-1.4 1.9-1.4 1.1 0 1.2.4.4 1.4zm4.8 1.9c-.9.9-2.8-.6-2.1-1.8.4-.6 1-.6 1.7.1.6.6.8 1.3.4 1.7zm.3 10.3c-.1 1.3-.3 1.3-1.5-.3-1.9-2.6-1.9-4.2 0-2.6.8.7 1.5 2 1.5 2.9zM149.5 26c.4 1.4 1.4 4.1 2.2 6l1.3 3.5-.4-4.4c-.2-2.4-1.2-5.1-2.1-6-1.6-1.5-1.7-1.4-1 .9zM154.3 39.4c1.2 1 1.7 2.9 1.8 7.2l.1 5.9 1-4.2c1.3-5.4.4-8.9-2.4-9.6-2.1-.5-2.1-.5-.5.7z"/><path d="M107.5 72c-.3.5-.1 1 .4 1 .6 0 1.1-.5 1.1-1 0-.6-.2-1-.4-1-.3 0-.8.4-1.1 1zM156.2 105.7c-1.2 1-3.3 2.6-4.7 3.6-1.4 1-2.5 2.4-2.5 3.1 0 .8 3.5 4.4 7.8 8 10.6 9.2 10.5 9.1 11.7 9.2.5 0 1.6.2 2.4.2.7.1 1.1.8.8 1.6-.7 1.7 1.1 3.6 3.5 3.6 1 0 2.6.4 3.6.9.9.6 3 1.2 4.5 1.6 3.4.7 5.9 5.1 3.6 6.5-.9.6-1.6.5-1.9-.3-.3-.7-1.2-1.3-2-1.5-1.1-.3-1 .2.4 1.7 2.4 2.6 4.8 2.7 7 .2 1-1.1 2.4-1.7 3.2-1.4.8.3 1.4 0 1.4-.6s1.1-1.1 2.5-1.1c3.1 0 8.5-2.6 10.2-4.9 1.4-1.9-1.4-5.1-12.1-13.9-3.8-3.1-8.8-7.3-11-9.2-5.6-4.8-8-6-12.1-6-2.1 0-3.5-.5-3.5-1.3 0-2.1-10.3-2.1-12.8 0zm24.5 6.5c-.3.8-.6.5-.6-.6-.1-1.1.2-1.7.5-1.3.3.3.4 1.2.1 1.9zM129 109c0 .5.5 1 1 1 .6 0 1-.5 1-1 0-.6-.4-1-1-1-.5 0-1 .4-1 1zM145 109c0 .5.5 1 1.1 1 .5 0 .7-.5.4-1-.3-.6-.8-1-1.1-1-.2 0-.4.4-.4 1zM139 112c0 1.7 3 2.4 4.3 1 .9-1 .9-1.1 0-.6-.6.3-1.4.2-1.8-.4-.8-1.3-2.5-1.3-2.5 0zM131.9 118c-2.4 1.6-5.5 3.9-6.9 5l-2.5 2 3.6 3.3c2 1.7 5.4 4.8 7.7 6.8 6.2 5.3 5.8 6.8-4.9 21.2-5 6.7-9.6 12.9-10.2 13.7-14.5 18.2-21.4 31.5-22.4 43.1-.9 9.6 4.1 22.8 14 37.3l4.2 6.1.7-6.9c.8-7.1 7.6-25 10.3-27.1.8-.5 3.4-3.7 5.8-7s14.4-18.4 26.7-33.5c12.2-15.1 22.8-28.1 23.3-28.8.8-1-.7-2.9-6.4-8-4.1-3.6-10-9.2-13.1-12.2-3.2-3.1-6-5.4-6.3-5.2-.3.3-.5-.1-.5-.9-.1-2.1-13.4-11.9-16.2-11.9-1.4 0-4.4 1.3-6.9 3zm-16.4 63.9c-.3.5-.1 1.2.5 1.6.5.3 1 .1 1-.5s.5-.8 1-.5c.8.5.7 1.1 0 2-.7.8-.9 1.9-.6 2.4.4.5.2 1.2-.4 1.6-.5.3-1 1.5-1 2.5 0 2.1-6.6 15-8.4 16.5-2 1.6-3.8 5.5-2.6 5.5.5 0 1-.5 1-1 0-.6.8-1 1.7-1 1.4 0 1.3.3-.5 1.6-1.9 1.3-2.1 1.8-1 3.2.7 1 .8 1.4.4 1-.5-.4-1.5-.3-2.2.3-1.9 1.6-1.1-7.3 1.3-14.1 1.1-3.1 1.9-6.4 1.7-7.4-.1-1 0-1.5.3-1.2.4.3 1.6-1.1 2.8-3.1 1.4-2.5 1.8-4 1.1-4.5s-.4-.8.7-.8c1 0 1.5-.5 1.2-1-.3-.6-.1-1 .4-1 .6 0 1-.3 1-.8-.2-1.2.1-2.2.7-2.2.3 0 .3.4-.1.9zm-1.7 26.6c0 1.4-.5 2.5-1 2.5-.6 0-.8.6-.5 1.4.3.7.2 1.7-.3 2.2-.5.5-1 2-1.2 3.4-.1 1.4-.6 2.7-1 3-.9.7-1.6 7.1-1.7 14.7-.1 2.9-.5 5.3-1 5.3-1.4 0-3.4-11.6-2.6-15.6.3-2 1.7-6 3.1-8.8 1.3-2.7 2.2-5.8 1.8-6.8-.5-1.6.5-2.3 2.9-1.9.4 0 .7-.4.7-.9 0-.6.2-1 .4-1s.4 1.1.4 2.5zm-2.6 19.7c-.8.8-.9.4-.5-1.3.4-1.3.8-1.8 1.1-1 .2.7-.1 1.8-.6 2.3z"/><path d="M110.5 209c-.3.5.1 1 1 1s1.3-.5 1-1c-.3-.6-.8-1-1-1-.2 0-.7.4-1 1zM207.5 123c.3.5.8 1 1.1 1 .2 0 .4-.5.4-1 0-.6-.5-1-1.1-1-.5 0-.7.4-.4 1zM51 138.5c-1.9 2.5-3.5 5.3-3.5 6.3 0 2.1 10.2 11.5 11.5 10.7.6-.3.8 0 .6.7C59 157.9 79.5 176 82 176c3.1 0 12-5.9 12-8 0-3-34.3-34-37.5-34-1.2.1-3.5 2-5.5 4.5zm6.2 6.9c2.2 1.6 3.6 7.6 1.9 7.6-1.6 0-4.1-2.5-4.1-4 0-.6-.4-.9-.9-.6-.5.3-.8-.5-.7-1.9.1-2.8 1.2-3.1 3.8-1.1zm7.3 7.6c1.1 1.2 1.3 2 .6 2-.7 0-.9.4-.6 1 .3.5.2 1-.3 1-.6 0-1.5-1.4-2.1-3-1.2-3.5-.2-3.9 2.4-1zm21.3 14.2c-.6 1.8-2.5 2-3.1.3-.5-1 0-1.5 1.4-1.5 1.2 0 1.9.5 1.7 1.2zm-6.8.8c0 .5-.2 1-.4 1-.3 0-.8-.5-1.1-1-.3-.6-.1-1 .4-1 .6 0 1.1.4 1.1 1zM177.7 139.1c.7.7 1.5 1 1.8.7.3-.3-.2-.9-1.2-1.2-1.4-.6-1.5-.5-.6.5zM177.5 142.1c1.6 1.9 3.3 3.8 3.7 4.3.5.6.8.4.8-.5 0-.7-1.7-2.7-3.8-4.3l-3.7-2.9 3 3.4zM82 151.4c1.9 1.8 3.7 3.2 3.9 3 .7-.6-5.1-6.4-6.3-6.4-.6 0 .5 1.5 2.4 3.4z"/></svg>